#!OML:ASF F:\VICON\USERDATA\INSTALL\rory3\rory3.ASF
:FULLY-SPECIFIED
:DEGREES
2219
root 0.0956468 15.863 -0.331034 3.17006 0.471755 -11.8043
lowerback 12.7209 -1.41873 10.3289
upperback -3.08913 0.966405 11.1412
thorax -10.7547 0.259061 6.32711
lowerneck -10.409 -8.10619 -13.4546
upperneck 18.1486 -10.6996 9.65334
head 8.62315 -5.13436 4.25027
rclavicle 6.55989e-015 8.26944e-014
rhumerus -43.0853 20.5046 -67.5901
rradius 30.938
rwrist -12.2334
rhand -11.5779 19.6829
rfingers 7.12502
rthumb 14.4638 -9.79306
lclavicle 6.55989e-015 8.26944e-014
lhumerus -19.3901 -23.779 56.3619
lradius 136.534
lwrist 63.7288
lhand -4.59085 26.2137
lfingers 7.12502
lthumb 21.1865 55.076
rfemur -6.23105 5.04969 29.4762
rtibia 16.6719
rfoot -10.6468 -7.85546
rtoes -2.25466
lfemur -17.0107 -2.32778 -2.25357
ltibia 35.8731
lfoot -16.2546 0.347893
ltoes -13.2758
2220
root 0.102315 15.8717 -0.325778 3.22224 0.513143 -11.5676
lowerback 12.6937 -1.36832 10.0889
upperback -3.12273 0.973253 10.937
thorax -10.7688 0.268028 6.22315
lowerneck -10.2934 -8.08362 -13.4763
upperneck 17.923 -10.655 9.62892
head 8.52038 -5.1206 4.25381
rclavicle -3.86636e-014 9.22361e-014
rhumerus -43.841 21.6953 -68.5019
rradius 32.522
rwrist -13.3919
rhand -11.7492 19.3831
rfingers 7.12502
rthumb 14.2987 -10.1046
lclavicle -3.86636e-014 9.22361e-014
lhumerus -19.4942 -23.8932 56.6395
lradius 135.471
lwrist 63.5063
lhand -4.22213 26.315
lfingers 7.12502
lthumb 21.5406 55.1371
rfemur -6.18998 5.3047 29.2162
rtibia 16.5632
rfoot -10.6209 -8.19832
rtoes -2.4823
lfemur -16.8993 -2.45572 -2.5631
ltibia 35.5701
lfoot -16.1653 0.479745
ltoes -13.5702
2221
root 0.110235 15.883 -0.322394 3.27687 0.550163 -11.3632
lowerback 12.6254 -1.32674 9.90448
upperback -3.10955 0.962578 10.7317
thorax -10.704 0.265878 6.0851
lowerneck -10.2364 -8.07514 -13.5652
upperneck 17.6609 -10.6217 9.67347
head 8.4257 -5.10847 4.28806
rclavicle -8.54774e-015 -6.04305e-014
rhumerus -44.4701 22.8466 -69.2821
rradius 34.3368
rwrist -14.5853
rhand -11.9789 19.233
rfingers 7.12502
rthumb 14.0774 -10.2702
lclavicle -8.54774e-015 -6.04305e-014
lhumerus -19.6127 -23.9731 56.9416
lradius 134.25
lwrist 63.1327
lhand -3.65183 26.3145
lfingers 7.12502
lthumb 22.0883 55.0729
rfemur -6.15045 5.62433 28.9839
rtibia 16.427
rfoot -10.5618 -8.59943
rtoes -2.58498
lfemur -16.7662 -2.62284 -2.83672
ltibia 35.2167
lfoot -16.0409 0.642978
ltoes -13.8251
2222
root 0.117986 15.8932 -0.321727 3.30275 0.563773 -11.1937
lowerback 12.5391 -1.27368 9.76477
upperback -3.02223 0.960254 10.5222
thorax -10.5438 0.265997 5.90905
lowerneck -10.2655 -8.09456 -13.6526
upperneck 17.3328 -10.6094 9.71122
head 8.3271 -5.10358 4.31357
rclavicle -1.41137e-014 -3.49861e-014
rhumerus -44.9121 23.7794 -69.8987
rradius 36.2857
rwrist -15.8
rhand -11.9649 18.9944
rfingers 7.12502
rthumb 14.0909 -10.5079
lclavicle -1.41137e-014 -3.49861e-014
lhumerus -19.5353 -24.0311 57.2751
lradius 132.785
lwrist 62.7229
lhand -3.17926 26.3278
lfingers 7.12502
lthumb 22.5419 55.0319
rfemur -6.07798 6.0381 28.7926
rtibia 16.2781
rfoot -10.5147 -9.02675
rtoes -2.49415
lfemur -16.5783 -2.76403 -3.06843
ltibia 34.7789
lfoot -15.8282 0.791082
ltoes -13.7366
2223
root 0.12552 15.9036 -0.319533 3.32744 0.533613 -10.9498
lowerback 12.4488 -1.17328 9.51784
upperback -2.93762 1.00344 10.3021
thorax -10.3863 0.294382 5.77213
lowerneck -10.2745 -8.08975 -13.6349
upperneck 16.9629 -10.5537 9.61101
head 8.19182 -5.08373 4.28161
rclavicle -8.24956e-015 -1.90833e-014
rhumerus -45.3549 24.6949 -70.3871
rradius 38.4202
rwrist -17.0179
rhand -11.9129 18.6958
rfingers 7.12502
rthumb 14.141 -10.8029
lclavicle -8.24956e-015 -1.90833e-014
lhumerus -19.5037 -24.271 57.6934
lradius 131.363
lwrist 62.4656
lhand -3.57751 26.4946
lfingers 7.12502
lthumb 22.1596 55.2446
rfemur -5.99853 6.43459 28.5287
rtibia 16.1052
rfoot -10.399 -9.46629
rtoes -2.76349
lfemur -16.3019 -2.94753 -3.38178
ltibia 34.2401
lfoot -15.6554 0.99556
ltoes -13.3974
